<svg width="20" height="31" viewBox="0 0 20 31" fill="none" xmlns="http://www.w3.org/2000/svg">
<path d="M16.2131 0C15.6151 0.17299 15.1932 0.560337 14.7672 0.955206C10.0771 5.26867 5.38286 9.57838 0.684553 13.8843C0.106993 14.4146 -0.163354 15.0125 0.102897 15.7346C0.201205 16.0053 0.397821 16.2686 0.619015 16.4754C5.48117 20.9544 10.3515 25.4258 15.2219 29.8897C16.0411 30.6418 17.102 30.638 17.9253 29.9009C18.3145 29.555 18.7036 29.2127 19.0518 28.8367C19.6416 28.2011 19.6089 27.3211 19.0149 26.6893C18.9248 26.5916 18.8224 26.5013 18.7241 26.4111C14.7631 22.7745 10.8021 19.138 6.8411 15.5014C6.75098 15.4187 6.64039 15.351 6.46835 15.1404C6.58304 15.084 6.71821 15.0464 6.80833 14.9674C10.8103 11.297 14.8122 7.6266 18.8101 3.95245C19.5556 3.26801 19.7031 2.32408 19.0927 1.68101C18.466 1.02666 17.8803 0.308373 16.9259 0C16.6883 0 16.4507 0 16.2131 0Z" fill="#8C8C8C"/>
</svg>
