<svg width="32" height="40" viewBox="0 0 32 40" fill="none" xmlns="http://www.w3.org/2000/svg">
<path d="M13.1276 0C13.6646 0.118911 14.2097 0.20653 14.7353 0.361948C18.2578 1.40607 20.7126 4.67195 20.7816 8.38323C20.796 9.18118 20.355 9.71941 19.6655 9.7434C18.9967 9.76635 18.5061 9.23334 18.4701 8.44477C18.3464 5.78074 16.8243 3.60905 14.4632 2.73078C10.4935 1.25274 6.28573 4.14833 6.18061 8.42912C6.15794 9.36268 5.45819 9.93846 4.66259 9.67769C4.16071 9.51288 3.867 9.06957 3.86597 8.47606C3.86288 4.81485 6.2847 1.51768 9.8288 0.391155C10.375 0.218004 10.947 0.128299 11.5076 0C12.0476 0 12.5876 0 13.1276 0Z" fill="white"/>
<path d="M20.7414 14.4228C22.7623 13.2358 25.349 13.9482 26.3631 16.4078C27.0546 16.1084 27.7698 15.9738 28.5303 16.0709C30.2978 16.2962 31.7849 17.866 31.7879 19.6684C31.7941 23.3109 31.8178 26.9554 31.6942 30.5947C31.5396 35.131 27.9151 39.126 23.4744 39.8207C22.9303 39.9063 22.3769 39.9636 21.8265 39.9678C19.8221 39.9855 17.8146 40.0304 15.8122 39.9626C11.9167 39.8301 9.0074 38.0183 7.18434 34.5125C4.87588 30.0763 2.59628 25.6244 0.304314 21.1788C0.227022 21.0297 0.142516 20.8815 0.0827439 20.7251C-0.0914209 20.2692 0.00751294 19.73 0.397065 19.4536C1.27819 18.8277 2.15932 18.1716 3.24966 17.962C5.37158 17.5541 7.12354 18.2019 8.48078 19.9125C8.52922 19.973 8.57456 20.0356 8.62197 20.0971C8.62918 20.1065 8.64464 20.1097 8.7209 20.1483C8.7209 19.9897 8.7209 19.8593 8.7209 19.7289C8.7209 15.9561 8.71575 12.1833 8.72297 8.41048C8.72606 6.58614 9.82876 5.14982 11.5209 4.72633C13.6727 4.1881 15.8709 5.76941 15.9864 8.00577C16.0606 9.45878 16.0142 10.9191 16.0224 12.3752C16.0235 12.5286 16.0224 12.6819 16.0224 12.8728C17.9795 12.2542 19.5428 12.7528 20.7414 14.4228ZM2.71273 20.7365C2.74674 20.8096 2.77251 20.869 2.80136 20.9253C4.95317 25.1091 7.0988 29.295 9.25886 33.4746C10.4914 35.8602 12.4412 37.2704 15.0826 37.552C16.4563 37.6991 17.8548 37.6292 19.2419 37.6282C20.4229 37.6271 21.6122 37.6647 22.785 37.5468C26.3538 37.188 29.329 33.9325 29.3991 30.3058C29.4661 26.8459 29.4682 23.3839 29.4888 19.9229C29.4939 19.0259 28.8344 18.3552 28.0027 18.3708C27.1793 18.3854 26.5589 19.0457 26.5517 19.924C26.5465 20.5488 26.5568 21.1736 26.5486 21.7974C26.5414 22.3554 26.2188 22.7977 25.7303 22.9479C24.9728 23.1815 24.2453 22.6256 24.2391 21.7901C24.2298 20.4372 24.2411 19.0833 24.2339 17.7304C24.2298 16.971 23.7558 16.3723 23.0725 16.2325C22.1223 16.0396 21.3041 16.7144 21.2958 17.7189C21.2845 19.0457 21.2958 20.3736 21.2917 21.7004C21.2896 22.3147 21.0083 22.7539 20.5219 22.9312C19.7479 23.2128 18.9863 22.6454 18.9822 21.7671C18.974 20.0231 18.9843 18.2801 18.977 16.5361C18.974 15.7402 18.5123 15.1321 17.8259 14.985C16.852 14.7764 16.0358 15.4659 16.0276 16.5319C16.0152 18.1841 16.0245 19.8374 16.0235 21.4897C16.0235 22.4545 15.5906 23.0157 14.8558 23.0063C14.1303 22.9969 13.7098 22.4493 13.7098 21.5074C13.7098 17.2266 13.7098 12.9458 13.7088 8.66499C13.7088 8.46994 13.7078 8.2728 13.6779 8.08191C13.5604 7.32464 12.8143 6.82605 12.0795 7.00128C11.3993 7.164 11.0366 7.67303 11.0366 8.47933C11.0355 13.6447 11.0366 18.811 11.0355 23.9764C11.0355 24.1453 11.0417 24.3164 11.017 24.4822C10.9315 25.0632 10.4832 25.4919 9.9246 25.5086C9.4289 25.5243 9.07748 25.2708 8.82087 24.8515C8.13864 23.7344 7.46362 22.613 6.75872 21.5116C5.85079 20.1013 4.09987 19.7644 2.71273 20.7365Z" fill="white"/>
</svg>
