<svg width="40" height="40" viewBox="0 0 40 40" fill="none" xmlns="http://www.w3.org/2000/svg">
<path d="M20 40C31.0457 40 40 31.0457 40 20C40 8.95431 31.0457 0 20 0C8.95431 0 0 8.95431 0 20C0 31.0457 8.95431 40 20 40Z" fill="#C6C6C6"/>
<path fill-rule="evenodd" clip-rule="evenodd" d="M19.6993 27.933H21.373C21.373 27.933 21.8785 27.8774 22.1366 27.5987C22.3742 27.3429 22.3666 26.8623 22.3666 26.8623C22.3666 26.8623 22.3339 24.6129 23.3762 24.2816C24.4037 23.9553 25.723 26.4557 27.1215 27.4171C28.179 28.1447 28.9826 27.9852 28.9826 27.9852L32.7218 27.933C32.7218 27.933 34.6779 27.8123 33.7504 26.2718C33.6744 26.1458 33.2103 25.1322 30.9702 23.0495C28.6256 20.8697 28.9396 21.2223 31.7639 17.4518C33.4839 15.1555 34.1716 13.7536 33.9568 13.1531C33.7519 12.5812 32.4869 12.7324 32.4869 12.7324L28.2767 12.7587C28.2767 12.7587 27.9646 12.716 27.7331 12.8546C27.5069 12.9905 27.3614 13.3073 27.3614 13.3073C27.3614 13.3073 26.695 15.0843 25.8063 16.5955C23.9315 19.7842 23.182 19.9525 22.8756 19.7545C22.1629 19.2931 22.3407 17.9007 22.3407 16.9115C22.3407 13.8213 22.8087 12.5329 21.4296 12.1993C20.9719 12.0885 20.6352 12.0154 19.4648 12.0036C17.9625 11.988 16.691 12.0082 15.9711 12.3615C15.4921 12.5965 15.1227 13.12 15.3477 13.1501C15.6259 13.1874 16.2562 13.3203 16.5903 13.776C17.0217 14.3639 17.0065 15.6843 17.0065 15.6843C17.0065 15.6843 17.2544 19.322 16.4276 19.774C15.8601 20.0839 15.0816 19.4511 13.4102 16.5582C12.5538 15.0763 11.9072 13.4383 11.9072 13.4383C11.9072 13.4383 11.7826 13.1322 11.5602 12.9685C11.2903 12.7701 10.9132 12.7069 10.9132 12.7069L6.91246 12.7331C6.91246 12.7331 6.31188 12.7499 6.09141 13.0115C5.89526 13.2441 6.07582 13.7254 6.07582 13.7254C6.07582 13.7254 9.208 21.0655 12.7545 24.7644C16.0064 28.1558 19.6993 27.933 19.6993 27.933Z" fill="black"/>
</svg>
