<svg width="40" height="40" viewBox="0 0 40 40" fill="none" xmlns="http://www.w3.org/2000/svg">
<path d="M19.9998 39.9996C31.0454 39.9996 39.9996 31.0454 39.9996 19.9998C39.9996 8.95423 31.0454 0 19.9998 0C8.95423 0 0 8.95423 0 19.9998C0 31.0454 8.95423 39.9996 19.9998 39.9996Z" fill="#C6C6C6"/>
<path d="M19.9713 28.9949C17.3368 28.9949 14.704 29.0075 12.0695 28.9918C9.57737 28.9761 7.6739 27.5323 7.1386 25.264C7.04318 24.858 7.01084 24.4316 7.00922 24.0146C6.9979 21.3372 6.9979 18.6597 7.00437 15.9822C7.01246 13.0728 9.08412 11.0239 12.076 11.0129C17.3594 10.9957 22.6429 10.9957 27.9264 11.0129C30.8972 11.0239 32.9802 13.0649 32.9915 15.9415C33.0028 18.6503 33.0028 21.3591 32.9915 24.0679C32.9786 26.9382 30.8924 28.9698 27.9199 28.9902C25.2709 29.009 22.6219 28.9949 19.9713 28.9949ZM16.622 16.1672C16.622 18.7553 16.622 21.2713 16.622 23.8375C18.9023 22.5536 21.1243 21.3043 23.4224 20.011C21.1211 18.7099 18.899 17.4526 16.622 16.1672Z" fill="black"/>
</svg>
